<mxfile host="Electron" agent="Mozilla/5.0 (Windows NT 10.0; Win64; x64) AppleWebKit/537.36 (KHTML, like Gecko) draw.io/27.0.9 Chrome/134.0.6998.205 Electron/35.4.0 Safari/537.36" version="27.0.9">
  <diagram name="Page-1" id="AR6CN44RQBTmICgnPj-y">
    <mxGraphModel dx="1426" dy="841" grid="1" gridSize="10" guides="1" tooltips="1" connect="1" arrows="1" fold="1" page="1" pageScale="1" pageWidth="827" pageHeight="1169" math="0" shadow="0">
      <root>
        <mxCell id="0" />
        <mxCell id="1" parent="0" />
        <mxCell id="ThPkctlHnFSj8nF42dJn-154" value="" style="rounded=1;whiteSpace=wrap;html=1;fillColor=none;strokeColor=#67AB9F;" vertex="1" parent="1">
          <mxGeometry x="890" y="750" width="240" height="90" as="geometry" />
        </mxCell>
        <mxCell id="ThPkctlHnFSj8nF42dJn-6" value="Users" style="text;strokeColor=none;fillColor=none;html=1;fontSize=24;fontStyle=1;verticalAlign=middle;align=center;" vertex="1" parent="1">
          <mxGeometry x="59" y="50" width="100" height="40" as="geometry" />
        </mxCell>
        <mxCell id="ThPkctlHnFSj8nF42dJn-7" value="" style="swimlane;startSize=0;" vertex="1" parent="1">
          <mxGeometry x="165" y="40" width="510" height="123" as="geometry" />
        </mxCell>
        <mxCell id="ThPkctlHnFSj8nF42dJn-9" value="" style="group" vertex="1" connectable="0" parent="ThPkctlHnFSj8nF42dJn-7">
          <mxGeometry x="30" y="30" width="100" height="90" as="geometry" />
        </mxCell>
        <mxCell id="ThPkctlHnFSj8nF42dJn-1" value="" style="verticalLabelPosition=bottom;html=1;verticalAlign=top;align=center;strokeColor=none;fillColor=#00BEF2;shape=mxgraph.azure.user;" vertex="1" parent="ThPkctlHnFSj8nF42dJn-9">
          <mxGeometry x="20" width="47.5" height="50" as="geometry" />
        </mxCell>
        <mxCell id="ThPkctlHnFSj8nF42dJn-2" value="User Admin" style="text;strokeColor=none;fillColor=none;html=1;fontSize=14;fontStyle=1;verticalAlign=middle;align=center;" vertex="1" parent="ThPkctlHnFSj8nF42dJn-9">
          <mxGeometry y="50" width="100" height="40" as="geometry" />
        </mxCell>
        <mxCell id="ThPkctlHnFSj8nF42dJn-10" value="" style="group" vertex="1" connectable="0" parent="ThPkctlHnFSj8nF42dJn-7">
          <mxGeometry x="340" y="27" width="100" height="96" as="geometry" />
        </mxCell>
        <mxCell id="ThPkctlHnFSj8nF42dJn-3" value="" style="sketch=0;pointerEvents=1;shadow=0;dashed=0;html=1;strokeColor=none;fillColor=#505050;labelPosition=center;verticalLabelPosition=bottom;verticalAlign=top;outlineConnect=0;align=center;shape=mxgraph.office.users.mobile_user;" vertex="1" parent="ThPkctlHnFSj8nF42dJn-10">
          <mxGeometry x="20.5" width="59" height="56" as="geometry" />
        </mxCell>
        <mxCell id="ThPkctlHnFSj8nF42dJn-4" value="Mobile Admin" style="text;strokeColor=none;fillColor=none;html=1;fontSize=14;fontStyle=1;verticalAlign=middle;align=center;" vertex="1" parent="ThPkctlHnFSj8nF42dJn-10">
          <mxGeometry y="56" width="100" height="40" as="geometry" />
        </mxCell>
        <mxCell id="ThPkctlHnFSj8nF42dJn-29" value="HTTPS" style="text;strokeColor=none;fillColor=none;html=1;fontSize=16;fontStyle=1;verticalAlign=middle;align=center;fontColor=#FFFF00;" vertex="1" parent="1">
          <mxGeometry x="910" y="90" width="100" height="40" as="geometry" />
        </mxCell>
        <mxCell id="ThPkctlHnFSj8nF42dJn-30" value="AWS Cloud" style="points=[[0,0],[0.25,0],[0.5,0],[0.75,0],[1,0],[1,0.25],[1,0.5],[1,0.75],[1,1],[0.75,1],[0.5,1],[0.25,1],[0,1],[0,0.75],[0,0.5],[0,0.25]];outlineConnect=0;gradientColor=none;html=1;whiteSpace=wrap;fontSize=12;fontStyle=0;container=1;pointerEvents=0;collapsible=0;recursiveResize=0;shape=mxgraph.aws4.group;grIcon=mxgraph.aws4.group_aws_cloud_alt;strokeColor=#CC6600;fillColor=none;verticalAlign=top;align=left;spacingLeft=30;fontColor=#232F3E;dashed=1;dashPattern=1 2;" vertex="1" parent="1">
          <mxGeometry x="44" y="220" width="1606" height="790" as="geometry" />
        </mxCell>
        <mxCell id="ThPkctlHnFSj8nF42dJn-14" value="Availability Zone B" style="fillColor=none;strokeColor=#147EBA;dashed=1;verticalAlign=top;fontStyle=0;fontColor=#147EBA;whiteSpace=wrap;html=1;" vertex="1" parent="ThPkctlHnFSj8nF42dJn-30">
          <mxGeometry x="456" y="90" width="315" height="610" as="geometry" />
        </mxCell>
        <mxCell id="ThPkctlHnFSj8nF42dJn-98" value="" style="group" vertex="1" connectable="0" parent="ThPkctlHnFSj8nF42dJn-30">
          <mxGeometry x="56" y="110" width="731.5" height="120" as="geometry" />
        </mxCell>
        <mxCell id="ThPkctlHnFSj8nF42dJn-37" value="API Gateway" style="text;strokeColor=none;fillColor=none;html=1;fontSize=16;fontStyle=1;verticalAlign=middle;align=center;" vertex="1" parent="ThPkctlHnFSj8nF42dJn-98">
          <mxGeometry x="548.4068673565381" y="10" width="127.0931326434619" height="40" as="geometry" />
        </mxCell>
        <mxCell id="ThPkctlHnFSj8nF42dJn-42" value="" style="sketch=0;points=[[0,0,0],[0.25,0,0],[0.5,0,0],[0.75,0,0],[1,0,0],[0,1,0],[0.25,1,0],[0.5,1,0],[0.75,1,0],[1,1,0],[0,0.25,0],[0,0.5,0],[0,0.75,0],[1,0.25,0],[1,0.5,0],[1,0.75,0]];outlineConnect=0;fontColor=#232F3E;fillColor=#8C4FFF;strokeColor=#ffffff;dashed=0;verticalLabelPosition=bottom;verticalAlign=top;align=center;html=1;fontSize=12;fontStyle=0;aspect=fixed;shape=mxgraph.aws4.resourceIcon;resIcon=mxgraph.aws4.api_gateway;" vertex="1" parent="ThPkctlHnFSj8nF42dJn-98">
          <mxGeometry x="446.73236124176856" y="32" width="78" height="78" as="geometry" />
        </mxCell>
        <mxCell id="ThPkctlHnFSj8nF42dJn-39" value="&lt;ul&gt;&lt;li&gt;LoadBalnacing&lt;/li&gt;&lt;li&gt;Auto Failover&lt;/li&gt;&lt;/ul&gt;" style="text;strokeColor=none;fillColor=none;html=1;whiteSpace=wrap;verticalAlign=middle;overflow=hidden;" vertex="1" parent="ThPkctlHnFSj8nF42dJn-98">
          <mxGeometry x="522.9882408278457" y="30" width="152.51175917215426" height="80" as="geometry" />
        </mxCell>
        <mxCell id="ThPkctlHnFSj8nF42dJn-139" value="" style="rounded=1;whiteSpace=wrap;html=1;fillColor=none;strokeColor=#66CC00;" vertex="1" parent="ThPkctlHnFSj8nF42dJn-98">
          <mxGeometry x="410" width="290" height="120" as="geometry" />
        </mxCell>
        <mxCell id="ThPkctlHnFSj8nF42dJn-118" value="" style="group" vertex="1" connectable="0" parent="ThPkctlHnFSj8nF42dJn-30">
          <mxGeometry x="506" y="530" width="178" height="100" as="geometry" />
        </mxCell>
        <mxCell id="ThPkctlHnFSj8nF42dJn-80" value="" style="sketch=0;points=[[0,0,0],[0.25,0,0],[0.5,0,0],[0.75,0,0],[1,0,0],[0,1,0],[0.25,1,0],[0.5,1,0],[0.75,1,0],[1,1,0],[0,0.25,0],[0,0.5,0],[0,0.75,0],[1,0.25,0],[1,0.5,0],[1,0.75,0]];outlineConnect=0;fontColor=#232F3E;fillColor=#C925D1;strokeColor=#ffffff;dashed=0;verticalLabelPosition=bottom;verticalAlign=top;align=center;html=1;fontSize=12;fontStyle=0;aspect=fixed;shape=mxgraph.aws4.resourceIcon;resIcon=mxgraph.aws4.dynamodb;" vertex="1" parent="ThPkctlHnFSj8nF42dJn-118">
          <mxGeometry y="10" width="78" height="78" as="geometry" />
        </mxCell>
        <mxCell id="ThPkctlHnFSj8nF42dJn-83" value="&lt;ul&gt;&lt;li&gt;Auto Sync&lt;/li&gt;&lt;li&gt;Read Replica&lt;/li&gt;&lt;li&gt;Failover&lt;/li&gt;&lt;/ul&gt;" style="text;strokeColor=none;fillColor=none;html=1;whiteSpace=wrap;verticalAlign=middle;overflow=hidden;" vertex="1" parent="ThPkctlHnFSj8nF42dJn-118">
          <mxGeometry x="64" y="20" width="114" height="80" as="geometry" />
        </mxCell>
        <mxCell id="ThPkctlHnFSj8nF42dJn-87" value="Replica" style="text;strokeColor=none;fillColor=none;html=1;fontSize=19;fontStyle=1;verticalAlign=middle;align=center;fontColor=#66CC00;" vertex="1" parent="ThPkctlHnFSj8nF42dJn-118">
          <mxGeometry x="78" width="100" height="40" as="geometry" />
        </mxCell>
        <mxCell id="ThPkctlHnFSj8nF42dJn-103" value="" style="rounded=0;whiteSpace=wrap;html=1;dashed=1;dashPattern=12 12;strokeColor=#FFFF99;fillColor=none;" vertex="1" parent="ThPkctlHnFSj8nF42dJn-30">
          <mxGeometry x="1140" y="64" width="420" height="636" as="geometry" />
        </mxCell>
        <mxCell id="ThPkctlHnFSj8nF42dJn-21" value="" style="sketch=0;points=[[0,0,0],[0.25,0,0],[0.5,0,0],[0.75,0,0],[1,0,0],[0,1,0],[0.25,1,0],[0.5,1,0],[0.75,1,0],[1,1,0],[0,0.25,0],[0,0.5,0],[0,0.75,0],[1,0.25,0],[1,0.5,0],[1,0.75,0]];outlineConnect=0;fontColor=#232F3E;fillColor=#DD344C;strokeColor=#ffffff;dashed=0;verticalLabelPosition=bottom;verticalAlign=top;align=center;html=1;fontSize=12;fontStyle=0;aspect=fixed;shape=mxgraph.aws4.resourceIcon;resIcon=mxgraph.aws4.cognito;" vertex="1" parent="ThPkctlHnFSj8nF42dJn-30">
          <mxGeometry x="1258.72" y="96" width="78" height="78" as="geometry" />
        </mxCell>
        <mxCell id="ThPkctlHnFSj8nF42dJn-24" value="Cognito User Pool" style="text;strokeColor=none;fillColor=none;html=1;fontSize=16;fontStyle=1;verticalAlign=middle;align=center;" vertex="1" parent="ThPkctlHnFSj8nF42dJn-30">
          <mxGeometry x="1348.7185714285717" y="90" width="118.57142857142857" height="40" as="geometry" />
        </mxCell>
        <mxCell id="ThPkctlHnFSj8nF42dJn-26" value="&lt;ul&gt;&lt;li&gt;Sign in&lt;/li&gt;&lt;li&gt;Sign Up&lt;/li&gt;&lt;li&gt;JWT Tokens&lt;/li&gt;&lt;/ul&gt;" style="text;strokeColor=none;fillColor=none;html=1;whiteSpace=wrap;verticalAlign=middle;overflow=hidden;" vertex="1" parent="ThPkctlHnFSj8nF42dJn-30">
          <mxGeometry x="1318.72" y="110" width="142.28571428571428" height="80" as="geometry" />
        </mxCell>
        <mxCell id="ThPkctlHnFSj8nF42dJn-116" value="&lt;ul&gt;&lt;li&gt;Create&lt;/li&gt;&lt;li&gt;Get&lt;/li&gt;&lt;li&gt;Get All&lt;/li&gt;&lt;li&gt;Update&lt;/li&gt;&lt;li&gt;Delete&lt;/li&gt;&lt;/ul&gt;" style="text;strokeColor=none;fillColor=none;html=1;whiteSpace=wrap;verticalAlign=middle;overflow=hidden;" vertex="1" parent="ThPkctlHnFSj8nF42dJn-30">
          <mxGeometry x="576" y="305" width="100" height="91" as="geometry" />
        </mxCell>
        <mxCell id="ThPkctlHnFSj8nF42dJn-123" value="" style="group" vertex="1" connectable="0" parent="ThPkctlHnFSj8nF42dJn-30">
          <mxGeometry x="1258.72" y="247" width="188.6400000000001" height="109" as="geometry" />
        </mxCell>
        <mxCell id="ThPkctlHnFSj8nF42dJn-91" value="" style="outlineConnect=0;dashed=0;verticalLabelPosition=bottom;verticalAlign=top;align=center;html=1;shape=mxgraph.aws3.cloudwatch;fillColor=#759C3E;gradientColor=none;" vertex="1" parent="ThPkctlHnFSj8nF42dJn-123">
          <mxGeometry width="82.5" height="93" as="geometry" />
        </mxCell>
        <mxCell id="ThPkctlHnFSj8nF42dJn-94" value="&lt;ul&gt;&lt;li&gt;API logs&lt;/li&gt;&lt;li&gt;Lambda Logs&lt;/li&gt;&lt;li&gt;Metrics&lt;/li&gt;&lt;/ul&gt;" style="text;strokeColor=none;fillColor=none;html=1;whiteSpace=wrap;verticalAlign=middle;overflow=hidden;" vertex="1" parent="ThPkctlHnFSj8nF42dJn-123">
          <mxGeometry x="73.6400000000001" y="14.5" width="115" height="80" as="geometry" />
        </mxCell>
        <mxCell id="ThPkctlHnFSj8nF42dJn-133" value="" style="group" vertex="1" connectable="0" parent="ThPkctlHnFSj8nF42dJn-30">
          <mxGeometry x="1266" y="500" width="199" height="80" as="geometry" />
        </mxCell>
        <mxCell id="ThPkctlHnFSj8nF42dJn-131" value="" style="sketch=0;points=[[0,0,0],[0.25,0,0],[0.5,0,0],[0.75,0,0],[1,0,0],[0,1,0],[0.25,1,0],[0.5,1,0],[0.75,1,0],[1,1,0],[0,0.25,0],[0,0.5,0],[0,0.75,0],[1,0.25,0],[1,0.5,0],[1,0.75,0]];outlineConnect=0;fontColor=#232F3E;fillColor=#8C4FFF;strokeColor=#ffffff;dashed=0;verticalLabelPosition=bottom;verticalAlign=top;align=center;html=1;fontSize=12;fontStyle=0;aspect=fixed;shape=mxgraph.aws4.resourceIcon;resIcon=mxgraph.aws4.route_53;" vertex="1" parent="ThPkctlHnFSj8nF42dJn-133">
          <mxGeometry width="78" height="78" as="geometry" />
        </mxCell>
        <mxCell id="ThPkctlHnFSj8nF42dJn-132" value="&lt;ul&gt;&lt;li&gt;DNS Faileover&lt;/li&gt;&lt;li&gt;Health check&lt;/li&gt;&lt;/ul&gt;" style="text;strokeColor=none;fillColor=none;html=1;whiteSpace=wrap;verticalAlign=middle;overflow=hidden;" vertex="1" parent="ThPkctlHnFSj8nF42dJn-133">
          <mxGeometry x="77.72000000000003" width="121.28" height="80" as="geometry" />
        </mxCell>
        <mxCell id="ThPkctlHnFSj8nF42dJn-134" value="Managed Services Multi A-Z" style="text;strokeColor=none;fillColor=none;html=1;fontSize=24;fontStyle=1;verticalAlign=middle;align=center;fontColor=#3399FF;" vertex="1" parent="ThPkctlHnFSj8nF42dJn-30">
          <mxGeometry x="1266" y="650" width="100" height="40" as="geometry" />
        </mxCell>
        <mxCell id="ThPkctlHnFSj8nF42dJn-113" value="" style="sketch=0;points=[[0,0,0],[0.25,0,0],[0.5,0,0],[0.75,0,0],[1,0,0],[0,1,0],[0.25,1,0],[0.5,1,0],[0.75,1,0],[1,1,0],[0,0.25,0],[0,0.5,0],[0,0.75,0],[1,0.25,0],[1,0.5,0],[1,0.75,0]];outlineConnect=0;fontColor=#232F3E;fillColor=#ED7100;strokeColor=#ffffff;dashed=0;verticalLabelPosition=bottom;verticalAlign=top;align=center;html=1;fontSize=12;fontStyle=0;aspect=fixed;shape=mxgraph.aws4.resourceIcon;resIcon=mxgraph.aws4.lambda;" vertex="1" parent="ThPkctlHnFSj8nF42dJn-30">
          <mxGeometry x="498" y="316" width="78" height="78" as="geometry" />
        </mxCell>
        <mxCell id="ThPkctlHnFSj8nF42dJn-36" value="API Gateway" style="text;strokeColor=none;fillColor=none;html=1;fontSize=16;fontStyle=1;verticalAlign=middle;align=center;" vertex="1" parent="ThPkctlHnFSj8nF42dJn-30">
          <mxGeometry x="229.58090310442145" y="110" width="127.0931326434619" height="40" as="geometry" />
        </mxCell>
        <mxCell id="ThPkctlHnFSj8nF42dJn-41" value="" style="sketch=0;points=[[0,0,0],[0.25,0,0],[0.5,0,0],[0.75,0,0],[1,0,0],[0,1,0],[0.25,1,0],[0.5,1,0],[0.75,1,0],[1,1,0],[0,0.25,0],[0,0.5,0],[0,0.75,0],[1,0.25,0],[1,0.5,0],[1,0.75,0]];outlineConnect=0;fontColor=#232F3E;fillColor=#8C4FFF;strokeColor=#ffffff;dashed=0;verticalLabelPosition=bottom;verticalAlign=top;align=center;html=1;fontSize=12;fontStyle=0;aspect=fixed;shape=mxgraph.aws4.resourceIcon;resIcon=mxgraph.aws4.api_gateway;" vertex="1" parent="ThPkctlHnFSj8nF42dJn-30">
          <mxGeometry x="126" y="142" width="78" height="78" as="geometry" />
        </mxCell>
        <mxCell id="ThPkctlHnFSj8nF42dJn-38" value="&lt;ul&gt;&lt;li&gt;REST API&lt;/li&gt;&lt;li&gt;CORS&lt;/li&gt;&lt;li&gt;Throttling&lt;/li&gt;&lt;li&gt;Cognito Auth&lt;/li&gt;&lt;/ul&gt;" style="text;strokeColor=none;fillColor=none;html=1;whiteSpace=wrap;verticalAlign=middle;overflow=hidden;" vertex="1" parent="ThPkctlHnFSj8nF42dJn-30">
          <mxGeometry x="204.16227657572907" y="140" width="152.51175917215426" height="80" as="geometry" />
        </mxCell>
        <mxCell id="ThPkctlHnFSj8nF42dJn-104" value="" style="sketch=0;points=[[0,0,0],[0.25,0,0],[0.5,0,0],[0.75,0,0],[1,0,0],[0,1,0],[0.25,1,0],[0.5,1,0],[0.75,1,0],[1,1,0],[0,0.25,0],[0,0.5,0],[0,0.75,0],[1,0.25,0],[1,0.5,0],[1,0.75,0]];outlineConnect=0;fontColor=#232F3E;fillColor=#ED7100;strokeColor=#ffffff;dashed=0;verticalLabelPosition=bottom;verticalAlign=top;align=center;html=1;fontSize=12;fontStyle=0;aspect=fixed;shape=mxgraph.aws4.resourceIcon;resIcon=mxgraph.aws4.lambda;" vertex="1" parent="ThPkctlHnFSj8nF42dJn-30">
          <mxGeometry x="126" y="316" width="78" height="78" as="geometry" />
        </mxCell>
        <mxCell id="ThPkctlHnFSj8nF42dJn-114" value="&lt;ul&gt;&lt;li&gt;Create&lt;/li&gt;&lt;li&gt;Get&lt;/li&gt;&lt;li&gt;Get All&lt;/li&gt;&lt;li&gt;Update&lt;/li&gt;&lt;li&gt;Delete&lt;/li&gt;&lt;/ul&gt;" style="text;strokeColor=none;fillColor=none;html=1;whiteSpace=wrap;verticalAlign=middle;overflow=hidden;" vertex="1" parent="ThPkctlHnFSj8nF42dJn-30">
          <mxGeometry x="204" y="305" width="100" height="100" as="geometry" />
        </mxCell>
        <mxCell id="ThPkctlHnFSj8nF42dJn-121" value="" style="group" vertex="1" connectable="0" parent="ThPkctlHnFSj8nF42dJn-30">
          <mxGeometry x="126" y="530" width="180" height="100" as="geometry" />
        </mxCell>
        <mxCell id="ThPkctlHnFSj8nF42dJn-86" value="Master" style="text;strokeColor=none;fillColor=none;html=1;fontSize=19;fontStyle=1;verticalAlign=middle;align=center;fontColor=#66CC00;" vertex="1" parent="ThPkctlHnFSj8nF42dJn-121">
          <mxGeometry x="68" width="100" height="40" as="geometry" />
        </mxCell>
        <mxCell id="ThPkctlHnFSj8nF42dJn-82" value="&lt;ul&gt;&lt;li&gt;Device Data&lt;/li&gt;&lt;li&gt;Auto Scaling&lt;/li&gt;&lt;li&gt;Encryption&lt;/li&gt;&lt;/ul&gt;" style="text;strokeColor=none;fillColor=none;html=1;whiteSpace=wrap;verticalAlign=middle;overflow=hidden;" vertex="1" parent="ThPkctlHnFSj8nF42dJn-121">
          <mxGeometry x="56" y="20" width="124" height="80" as="geometry" />
        </mxCell>
        <mxCell id="ThPkctlHnFSj8nF42dJn-79" value="" style="sketch=0;points=[[0,0,0],[0.25,0,0],[0.5,0,0],[0.75,0,0],[1,0,0],[0,1,0],[0.25,1,0],[0.5,1,0],[0.75,1,0],[1,1,0],[0,0.25,0],[0,0.5,0],[0,0.75,0],[1,0.25,0],[1,0.5,0],[1,0.75,0]];outlineConnect=0;fontColor=#232F3E;fillColor=#C925D1;strokeColor=#ffffff;dashed=0;verticalLabelPosition=bottom;verticalAlign=top;align=center;html=1;fontSize=12;fontStyle=0;aspect=fixed;shape=mxgraph.aws4.resourceIcon;resIcon=mxgraph.aws4.dynamodb;" vertex="1" parent="ThPkctlHnFSj8nF42dJn-121">
          <mxGeometry width="78" height="78" as="geometry" />
        </mxCell>
        <mxCell id="ThPkctlHnFSj8nF42dJn-13" value="Availability Zone A" style="fillColor=none;strokeColor=#147EBA;dashed=1;verticalAlign=top;fontStyle=0;fontColor=#147EBA;whiteSpace=wrap;html=1;" vertex="1" parent="ThPkctlHnFSj8nF42dJn-30">
          <mxGeometry x="66" y="90" width="315" height="610" as="geometry" />
        </mxCell>
        <mxCell id="ThPkctlHnFSj8nF42dJn-138" value="Public subnet" style="points=[[0,0],[0.25,0],[0.5,0],[0.75,0],[1,0],[1,0.25],[1,0.5],[1,0.75],[1,1],[0.75,1],[0.5,1],[0.25,1],[0,1],[0,0.75],[0,0.5],[0,0.25]];outlineConnect=0;gradientColor=none;html=1;whiteSpace=wrap;fontSize=12;fontStyle=0;container=1;pointerEvents=0;collapsible=0;recursiveResize=0;shape=mxgraph.aws4.group;grIcon=mxgraph.aws4.group_security_group;grStroke=0;strokeColor=#7AA116;fillColor=none;verticalAlign=top;align=left;spacingLeft=30;fontColor=#248814;" vertex="1" parent="ThPkctlHnFSj8nF42dJn-30">
          <mxGeometry x="463.5" y="110" width="300" height="150" as="geometry" />
        </mxCell>
        <mxCell id="ThPkctlHnFSj8nF42dJn-141" value="Private subnet" style="points=[[0,0],[0.25,0],[0.5,0],[0.75,0],[1,0],[1,0.25],[1,0.5],[1,0.75],[1,1],[0.75,1],[0.5,1],[0.25,1],[0,1],[0,0.75],[0,0.5],[0,0.25]];outlineConnect=0;gradientColor=none;html=1;whiteSpace=wrap;fontSize=12;fontStyle=0;container=1;pointerEvents=0;collapsible=0;recursiveResize=0;shape=mxgraph.aws4.group;grIcon=mxgraph.aws4.group_security_group;grStroke=0;strokeColor=#00A4A6;fillColor=none;verticalAlign=top;align=left;spacingLeft=30;fontColor=#147EBA;dashed=0;" vertex="1" parent="ThPkctlHnFSj8nF42dJn-30">
          <mxGeometry x="76" y="293" width="284" height="130" as="geometry" />
        </mxCell>
        <mxCell id="ThPkctlHnFSj8nF42dJn-146" value="Private subnet" style="points=[[0,0],[0.25,0],[0.5,0],[0.75,0],[1,0],[1,0.25],[1,0.5],[1,0.75],[1,1],[0.75,1],[0.5,1],[0.25,1],[0,1],[0,0.75],[0,0.5],[0,0.25]];outlineConnect=0;gradientColor=none;html=1;whiteSpace=wrap;fontSize=12;fontStyle=0;container=1;pointerEvents=0;collapsible=0;recursiveResize=0;shape=mxgraph.aws4.group;grIcon=mxgraph.aws4.group_security_group;grStroke=0;strokeColor=#00A4A6;fillColor=none;verticalAlign=top;align=left;spacingLeft=30;fontColor=#147EBA;dashed=0;" vertex="1" parent="ThPkctlHnFSj8nF42dJn-30">
          <mxGeometry x="76" y="500" width="290" height="130" as="geometry" />
        </mxCell>
        <mxCell id="ThPkctlHnFSj8nF42dJn-149" value="" style="rounded=1;whiteSpace=wrap;html=1;fillColor=none;strokeColor=#67AB9F;" vertex="1" parent="ThPkctlHnFSj8nF42dJn-146">
          <mxGeometry width="290" height="120" as="geometry" />
        </mxCell>
        <mxCell id="ThPkctlHnFSj8nF42dJn-148" value="Private subnet" style="points=[[0,0],[0.25,0],[0.5,0],[0.75,0],[1,0],[1,0.25],[1,0.5],[1,0.75],[1,1],[0.75,1],[0.5,1],[0.25,1],[0,1],[0,0.75],[0,0.5],[0,0.25]];outlineConnect=0;gradientColor=none;html=1;whiteSpace=wrap;fontSize=12;fontStyle=0;container=1;pointerEvents=0;collapsible=0;recursiveResize=0;shape=mxgraph.aws4.group;grIcon=mxgraph.aws4.group_security_group;grStroke=0;strokeColor=#00A4A6;fillColor=none;verticalAlign=top;align=left;spacingLeft=30;fontColor=#147EBA;dashed=0;" vertex="1" parent="ThPkctlHnFSj8nF42dJn-30">
          <mxGeometry x="472" y="500" width="278" height="130" as="geometry" />
        </mxCell>
        <mxCell id="ThPkctlHnFSj8nF42dJn-54" value="JWT Tokens" style="text;strokeColor=none;fillColor=none;html=1;fontSize=16;fontStyle=1;verticalAlign=middle;align=center;fontColor=#FFFF00;" vertex="1" parent="ThPkctlHnFSj8nF42dJn-30">
          <mxGeometry x="1186" y="190" width="100" height="40" as="geometry" />
        </mxCell>
        <mxCell id="ThPkctlHnFSj8nF42dJn-135" value="Region" style="points=[[0,0],[0.25,0],[0.5,0],[0.75,0],[1,0],[1,0.25],[1,0.5],[1,0.75],[1,1],[0.75,1],[0.5,1],[0.25,1],[0,1],[0,0.75],[0,0.5],[0,0.25]];outlineConnect=0;gradientColor=none;html=1;whiteSpace=wrap;fontSize=12;fontStyle=0;container=1;pointerEvents=0;collapsible=0;recursiveResize=0;shape=mxgraph.aws4.group;grIcon=mxgraph.aws4.group_region;strokeColor=#00A4A6;fillColor=none;verticalAlign=top;align=left;spacingLeft=30;fontColor=#000000;dashed=1;" vertex="1" parent="1">
          <mxGeometry x="60" y="250" width="1580" height="730" as="geometry" />
        </mxCell>
        <mxCell id="ThPkctlHnFSj8nF42dJn-136" value="VPC" style="points=[[0,0],[0.25,0],[0.5,0],[0.75,0],[1,0],[1,0.25],[1,0.5],[1,0.75],[1,1],[0.75,1],[0.5,1],[0.25,1],[0,1],[0,0.75],[0,0.5],[0,0.25]];outlineConnect=0;gradientColor=none;html=1;whiteSpace=wrap;fontSize=12;fontStyle=0;container=1;pointerEvents=0;collapsible=0;recursiveResize=0;shape=mxgraph.aws4.group;grIcon=mxgraph.aws4.group_vpc2;strokeColor=#8C4FFF;fillColor=none;verticalAlign=top;align=left;spacingLeft=30;fontColor=#AAB7B8;dashed=0;" vertex="1" parent="ThPkctlHnFSj8nF42dJn-135">
          <mxGeometry x="25" y="35" width="1545" height="665" as="geometry" />
        </mxCell>
        <mxCell id="ThPkctlHnFSj8nF42dJn-181" style="edgeStyle=orthogonalEdgeStyle;rounded=0;orthogonalLoop=1;jettySize=auto;html=1;exitX=1;exitY=0.5;exitDx=0;exitDy=0;" edge="1" parent="ThPkctlHnFSj8nF42dJn-136" source="ThPkctlHnFSj8nF42dJn-153">
          <mxGeometry relative="1" as="geometry">
            <mxPoint x="1215" y="255" as="targetPoint" />
            <Array as="points">
              <mxPoint x="1069" y="375" />
              <mxPoint x="1216" y="375" />
            </Array>
          </mxGeometry>
        </mxCell>
        <mxCell id="ThPkctlHnFSj8nF42dJn-153" value="" style="rounded=0;whiteSpace=wrap;html=1;fillColor=none;strokeColor=#994C00;" vertex="1" parent="ThPkctlHnFSj8nF42dJn-136">
          <mxGeometry x="9" y="425" width="1060" height="195" as="geometry" />
        </mxCell>
        <mxCell id="ThPkctlHnFSj8nF42dJn-142" value="Private subnet" style="points=[[0,0],[0.25,0],[0.5,0],[0.75,0],[1,0],[1,0.25],[1,0.5],[1,0.75],[1,1],[0.75,1],[0.5,1],[0.25,1],[0,1],[0,0.75],[0,0.5],[0,0.25]];outlineConnect=0;gradientColor=none;html=1;whiteSpace=wrap;fontSize=12;fontStyle=0;container=1;pointerEvents=0;collapsible=0;recursiveResize=0;shape=mxgraph.aws4.group;grIcon=mxgraph.aws4.group_security_group;grStroke=0;strokeColor=#00A4A6;fillColor=none;verticalAlign=top;align=left;spacingLeft=30;fontColor=#147EBA;dashed=0;" vertex="1" parent="ThPkctlHnFSj8nF42dJn-136">
          <mxGeometry x="428" y="228" width="284" height="130" as="geometry" />
        </mxCell>
        <mxCell id="ThPkctlHnFSj8nF42dJn-150" value="" style="rounded=1;whiteSpace=wrap;html=1;fillColor=none;strokeColor=#67AB9F;" vertex="1" parent="ThPkctlHnFSj8nF42dJn-136">
          <mxGeometry x="431" y="435" width="290" height="120" as="geometry" />
        </mxCell>
        <mxCell id="ThPkctlHnFSj8nF42dJn-177" style="edgeStyle=orthogonalEdgeStyle;rounded=0;orthogonalLoop=1;jettySize=auto;html=1;exitX=0.75;exitY=1;exitDx=0;exitDy=0;entryX=0.75;entryY=0;entryDx=0;entryDy=0;" edge="1" parent="ThPkctlHnFSj8nF42dJn-136" source="ThPkctlHnFSj8nF42dJn-151" target="ThPkctlHnFSj8nF42dJn-152">
          <mxGeometry relative="1" as="geometry" />
        </mxCell>
        <mxCell id="ThPkctlHnFSj8nF42dJn-151" value="" style="rounded=0;whiteSpace=wrap;html=1;fillColor=none;strokeColor=#994C00;" vertex="1" parent="ThPkctlHnFSj8nF42dJn-136">
          <mxGeometry x="10" y="50" width="1060" height="130" as="geometry" />
        </mxCell>
        <mxCell id="ThPkctlHnFSj8nF42dJn-178" style="edgeStyle=orthogonalEdgeStyle;rounded=0;orthogonalLoop=1;jettySize=auto;html=1;exitX=0.75;exitY=1;exitDx=0;exitDy=0;entryX=0.75;entryY=0;entryDx=0;entryDy=0;" edge="1" parent="ThPkctlHnFSj8nF42dJn-136" source="ThPkctlHnFSj8nF42dJn-152" target="ThPkctlHnFSj8nF42dJn-153">
          <mxGeometry relative="1" as="geometry" />
        </mxCell>
        <mxCell id="ThPkctlHnFSj8nF42dJn-180" style="edgeStyle=orthogonalEdgeStyle;rounded=0;orthogonalLoop=1;jettySize=auto;html=1;exitX=1;exitY=0.5;exitDx=0;exitDy=0;" edge="1" parent="ThPkctlHnFSj8nF42dJn-136" source="ThPkctlHnFSj8nF42dJn-152">
          <mxGeometry relative="1" as="geometry">
            <mxPoint x="1215" y="255" as="targetPoint" />
          </mxGeometry>
        </mxCell>
        <mxCell id="ThPkctlHnFSj8nF42dJn-152" value="" style="rounded=0;whiteSpace=wrap;html=1;fillColor=none;strokeColor=#994C00;" vertex="1" parent="ThPkctlHnFSj8nF42dJn-136">
          <mxGeometry x="10" y="225" width="1060" height="130" as="geometry" />
        </mxCell>
        <mxCell id="ThPkctlHnFSj8nF42dJn-157" value="API Gateway Layer" style="text;strokeColor=none;fillColor=none;html=1;fontSize=24;fontStyle=1;verticalAlign=middle;align=center;fontColor=#000000;" vertex="1" parent="ThPkctlHnFSj8nF42dJn-136">
          <mxGeometry x="825" y="95" width="100" height="40" as="geometry" />
        </mxCell>
        <mxCell id="ThPkctlHnFSj8nF42dJn-158" value="Compute Layer" style="text;strokeColor=none;fillColor=none;html=1;fontSize=24;fontStyle=1;verticalAlign=middle;align=center;fontColor=#000000;" vertex="1" parent="ThPkctlHnFSj8nF42dJn-136">
          <mxGeometry x="825" y="273" width="100" height="40" as="geometry" />
        </mxCell>
        <mxCell id="ThPkctlHnFSj8nF42dJn-174" value="Data Layer" style="text;strokeColor=none;fillColor=none;html=1;fontSize=24;fontStyle=1;verticalAlign=middle;align=center;fontColor=#000000;" vertex="1" parent="ThPkctlHnFSj8nF42dJn-136">
          <mxGeometry x="855" y="570" width="100" height="40" as="geometry" />
        </mxCell>
        <mxCell id="ThPkctlHnFSj8nF42dJn-55" value="Invoke" style="text;strokeColor=none;fillColor=none;html=1;fontSize=16;fontStyle=1;verticalAlign=middle;align=center;fontColor=#FFFF00;" vertex="1" parent="ThPkctlHnFSj8nF42dJn-136">
          <mxGeometry x="785" y="180" width="100" height="40" as="geometry" />
        </mxCell>
        <mxCell id="ThPkctlHnFSj8nF42dJn-77" value="Read/ Write" style="text;strokeColor=none;fillColor=none;html=1;fontSize=16;fontStyle=1;verticalAlign=middle;align=center;fontColor=#FFFF00;" vertex="1" parent="ThPkctlHnFSj8nF42dJn-136">
          <mxGeometry x="805" y="375" width="100" height="40" as="geometry" />
        </mxCell>
        <mxCell id="ThPkctlHnFSj8nF42dJn-130" value="" style="group" vertex="1" connectable="0" parent="ThPkctlHnFSj8nF42dJn-136">
          <mxGeometry x="805" y="465.7866666666667" width="255" height="130" as="geometry" />
        </mxCell>
        <mxCell id="ThPkctlHnFSj8nF42dJn-78" value="Availability Zone B" style="fillColor=none;strokeColor=#147EBA;dashed=1;verticalAlign=top;fontStyle=0;fontColor=#147EBA;whiteSpace=wrap;html=1;" vertex="1" parent="ThPkctlHnFSj8nF42dJn-130">
          <mxGeometry y="-30" width="255" height="130" as="geometry" />
        </mxCell>
        <mxCell id="ThPkctlHnFSj8nF42dJn-81" value="" style="sketch=0;points=[[0,0,0],[0.25,0,0],[0.5,0,0],[0.75,0,0],[1,0,0],[0,1,0],[0.25,1,0],[0.5,1,0],[0.75,1,0],[1,1,0],[0,0.25,0],[0,0.5,0],[0,0.75,0],[1,0.25,0],[1,0.5,0],[1,0.75,0]];outlineConnect=0;fontColor=#232F3E;fillColor=#C925D1;strokeColor=#ffffff;dashed=0;verticalLabelPosition=bottom;verticalAlign=top;align=center;html=1;fontSize=12;fontStyle=0;aspect=fixed;shape=mxgraph.aws4.resourceIcon;resIcon=mxgraph.aws4.dynamodb;" vertex="1" parent="ThPkctlHnFSj8nF42dJn-130">
          <mxGeometry x="12.551813471502555" y="37.48333333333337" width="39.76470588235294" height="39.76470588235294" as="geometry" />
        </mxCell>
        <mxCell id="ThPkctlHnFSj8nF42dJn-84" value="&lt;ul&gt;&lt;li&gt;Point in time&lt;/li&gt;&lt;li&gt;cross region&lt;/li&gt;&lt;/ul&gt;" style="text;strokeColor=none;fillColor=none;html=1;whiteSpace=wrap;verticalAlign=middle;overflow=hidden;" vertex="1" parent="ThPkctlHnFSj8nF42dJn-130">
          <mxGeometry x="57.82642487046628" y="32.0666666666667" width="150.6217616580311" height="69.33333333333331" as="geometry" />
        </mxCell>
        <mxCell id="ThPkctlHnFSj8nF42dJn-88" value="Backup" style="text;strokeColor=none;fillColor=none;html=1;fontSize=19;fontStyle=1;verticalAlign=middle;align=center;fontColor=#66CC00;" vertex="1" parent="ThPkctlHnFSj8nF42dJn-130">
          <mxGeometry x="67.07575129533677" y="17.666666666666742" width="132.12435233160622" height="34.66666666666667" as="geometry" />
        </mxCell>
        <mxCell id="ThPkctlHnFSj8nF42dJn-137" value="Public subnet" style="points=[[0,0],[0.25,0],[0.5,0],[0.75,0],[1,0],[1,0.25],[1,0.5],[1,0.75],[1,1],[0.75,1],[0.5,1],[0.25,1],[0,1],[0,0.75],[0,0.5],[0,0.25]];outlineConnect=0;gradientColor=none;html=1;whiteSpace=wrap;fontSize=12;fontStyle=0;container=1;pointerEvents=0;collapsible=0;recursiveResize=0;shape=mxgraph.aws4.group;grIcon=mxgraph.aws4.group_security_group;grStroke=0;strokeColor=#7AA116;fillColor=none;verticalAlign=top;align=left;spacingLeft=30;fontColor=#248814;dashed=0;" vertex="1" parent="1">
          <mxGeometry x="120" y="330" width="300" height="150" as="geometry" />
        </mxCell>
        <mxCell id="ThPkctlHnFSj8nF42dJn-140" value="" style="rounded=1;whiteSpace=wrap;html=1;fillColor=none;strokeColor=#66CC00;" vertex="1" parent="ThPkctlHnFSj8nF42dJn-137">
          <mxGeometry width="290" height="120" as="geometry" />
        </mxCell>
        <mxCell id="ThPkctlHnFSj8nF42dJn-143" value="" style="rounded=1;whiteSpace=wrap;html=1;fillColor=none;strokeColor=#67AB9F;" vertex="1" parent="1">
          <mxGeometry x="120" y="514" width="290" height="120" as="geometry" />
        </mxCell>
        <mxCell id="ThPkctlHnFSj8nF42dJn-144" value="" style="rounded=1;whiteSpace=wrap;html=1;fillColor=none;strokeColor=#67AB9F;" vertex="1" parent="1">
          <mxGeometry x="514" y="516" width="290" height="120" as="geometry" />
        </mxCell>
        <mxCell id="ThPkctlHnFSj8nF42dJn-156" value="Private subnet" style="points=[[0,0],[0.25,0],[0.5,0],[0.75,0],[1,0],[1,0.25],[1,0.5],[1,0.75],[1,1],[0.75,1],[0.5,1],[0.25,1],[0,1],[0,0.75],[0,0.5],[0,0.25]];outlineConnect=0;gradientColor=none;html=1;whiteSpace=wrap;fontSize=12;fontStyle=0;container=1;pointerEvents=0;collapsible=0;recursiveResize=0;shape=mxgraph.aws4.group;grIcon=mxgraph.aws4.group_security_group;grStroke=0;strokeColor=#00A4A6;fillColor=none;verticalAlign=top;align=left;spacingLeft=30;fontColor=#147EBA;dashed=0;" vertex="1" parent="1">
          <mxGeometry x="890" y="750" width="240" height="90" as="geometry" />
        </mxCell>
        <mxCell id="ThPkctlHnFSj8nF42dJn-175" style="edgeStyle=orthogonalEdgeStyle;rounded=0;orthogonalLoop=1;jettySize=auto;html=1;exitX=1;exitY=0.5;exitDx=0;exitDy=0;entryX=0;entryY=0.5;entryDx=0;entryDy=0;entryPerimeter=0;" edge="1" parent="1" source="ThPkctlHnFSj8nF42dJn-7" target="ThPkctlHnFSj8nF42dJn-21">
          <mxGeometry relative="1" as="geometry">
            <Array as="points">
              <mxPoint x="1303" y="102" />
            </Array>
          </mxGeometry>
        </mxCell>
        <mxCell id="ThPkctlHnFSj8nF42dJn-176" style="edgeStyle=orthogonalEdgeStyle;rounded=0;orthogonalLoop=1;jettySize=auto;html=1;exitX=0.5;exitY=1;exitDx=0;exitDy=0;exitPerimeter=0;entryX=1;entryY=0.5;entryDx=0;entryDy=0;" edge="1" parent="1" source="ThPkctlHnFSj8nF42dJn-21" target="ThPkctlHnFSj8nF42dJn-151">
          <mxGeometry relative="1" as="geometry" />
        </mxCell>
        <mxCell id="ThPkctlHnFSj8nF42dJn-179" style="edgeStyle=orthogonalEdgeStyle;rounded=0;orthogonalLoop=1;jettySize=auto;html=1;exitX=1;exitY=0.75;exitDx=0;exitDy=0;entryX=0;entryY=0.78;entryDx=0;entryDy=0;entryPerimeter=0;" edge="1" parent="1" source="ThPkctlHnFSj8nF42dJn-151" target="ThPkctlHnFSj8nF42dJn-91">
          <mxGeometry relative="1" as="geometry" />
        </mxCell>
      </root>
    </mxGraphModel>
  </diagram>
</mxfile>
